<svg width="256" height="256" viewBox="0 0 256 256" fill="none" xmlns="http://www.w3.org/2000/svg">
  <rect width="256" height="256" rx="60" fill="#0F172A"></rect>
  <g transform="rotate(-10 120 158)">
    <rect x="48" y="84" width="132" height="150" rx="12" fill="#FFFFFF" opacity="0.18"></rect>
  </g>
  <g transform="rotate(6 132 142)">
    <rect x="62" y="68" width="132" height="150" rx="12" fill="#FFFFFF" opacity="0.32"></rect>
  </g>
  <g>
    <rect x="58" y="50" width="140" height="160" rx="14" fill="#FFFFFF"></rect>
    <rect x="58" y="50" width="140" height="22" rx="14" fill="#0F172A"></rect>
    <rect x="58" y="62" width="140" height="10" fill="#0F172A"></rect>
    <circle cx="74" cy="61" r="3" fill="#FFFFFF"></circle>
    <rect x="84" y="58" width="56" height="6" rx="3" fill="#FFFFFF" opacity="0.6"></rect>

    <rect x="74" y="92" width="80" height="6" rx="3" fill="#CBD5E1"></rect>
    <rect x="74" y="106" width="80" height="6" rx="3" fill="#CBD5E1"></rect>
    <rect x="74" y="120" width="56" height="6" rx="3" fill="#CBD5E1"></rect>
    <rect x="74" y="138" width="80" height="6" rx="3" fill="#E2E8F0"></rect>
    <rect x="74" y="152" width="64" height="6" rx="3" fill="#E2E8F0"></rect>
    <rect x="70" y="172" width="116" height="2" fill="#E2E8F0"></rect>
    <rect x="74" y="180" width="40" height="6" rx="3" fill="#0F172A"></rect>
    <rect x="120" y="180" width="34" height="6" rx="3" fill="#0F172A"></rect>

    <path d="M164 190 L174 200 L192 180" stroke="#0F172A" stroke-width="7" stroke-linecap="round" stroke-linejoin="round" fill="none"></path>
  </g>
</svg>