<svg xmlns="http://www.w3.org/2000/svg" viewBox="0 0 1100 320" width="100%" height="100%">
  <defs>
    <linearGradient id="wm-bg" x1="0" y1="0" x2="0" y2="1">
      <stop offset="0%" stop-color="#ECFDF5"></stop>
      <stop offset="100%" stop-color="#D1FAE5"></stop>
    </linearGradient>
    <linearGradient id="wm-check" x1="0" y1="0" x2="1" y2="1">
      <stop offset="0%" stop-color="#10B981"></stop>
      <stop offset="100%" stop-color="#059669"></stop>
    </linearGradient>
  </defs>

  <g transform="translate(20 32) scale(0.9375)">
    <rect width="256" height="256" rx="60" fill="url(#wm-bg)"></rect>
    <ellipse cx="128" cy="222" rx="78" ry="6" fill="#0F172A" opacity="0.08"></ellipse>
    <g transform="rotate(-10 120 158)">
      <rect x="48" y="84" width="132" height="150" rx="12" fill="#34D399"></rect>
      <rect x="60" y="100" width="108" height="6" rx="3" fill="#FFFFFF" opacity="0.55"></rect>
      <rect x="60" y="116" width="80" height="6" rx="3" fill="#FFFFFF" opacity="0.4"></rect>
    </g>
    <g transform="rotate(6 132 142)">
      <rect x="62" y="68" width="132" height="150" rx="12" fill="#6EE7B7"></rect>
      <rect x="74" y="84" width="108" height="6" rx="3" fill="#FFFFFF" opacity="0.65"></rect>
      <rect x="74" y="100" width="92" height="6" rx="3" fill="#FFFFFF" opacity="0.5"></rect>
    </g>
    <g>
      <rect x="58" y="50" width="140" height="160" rx="14" fill="#FFFFFF"></rect>
      <rect x="58" y="50" width="140" height="160" rx="14" fill="none" stroke="#0F172A" stroke-width="3"></rect>
      <rect x="58" y="50" width="140" height="22" rx="14" fill="#0F172A"></rect>
      <rect x="58" y="62" width="140" height="10" fill="#0F172A"></rect>
      <circle cx="74" cy="61" r="3" fill="#10B981"></circle>
      <rect x="84" y="58" width="56" height="6" rx="3" fill="#FFFFFF" opacity="0.85"></rect>
      <rect x="74" y="92" width="80" height="6" rx="3" fill="#CBD5E1"></rect>
      <rect x="74" y="106" width="80" height="6" rx="3" fill="#CBD5E1"></rect>
      <rect x="74" y="120" width="56" height="6" rx="3" fill="#CBD5E1"></rect>
      <rect x="74" y="138" width="80" height="6" rx="3" fill="#E2E8F0"></rect>
      <rect x="74" y="152" width="64" height="6" rx="3" fill="#E2E8F0"></rect>
      <rect x="70" y="172" width="116" height="2" fill="#E2E8F0"></rect>
      <rect x="74" y="180" width="40" height="6" rx="3" fill="#0F172A"></rect>
      <rect x="120" y="180" width="34" height="6" rx="3" fill="#0F172A"></rect>
      <path d="M164 190 L174 200 L192 180" stroke="url(#wm-check)" stroke-width="7" stroke-linecap="round" stroke-linejoin="round" fill="none"></path>
    </g>
  </g>

  
  <text x="290" y="174" font-family="Geist, &#39;Inter&#39;, system-ui, sans-serif" font-weight="800" font-size="124" letter-spacing="-3" fill="#0F172A">SnapBooks<tspan fill="#10B981">.ai</tspan></text>

  
  <text x="292" y="252" font-family="&#39;Noto Sans TC&#39;, &#39;PingFang TC&#39;, system-ui, sans-serif" font-weight="500" font-size="36" letter-spacing="2" fill="#64748B">速博 · AI 記帳事務所</text>
</svg>