<svg xmlns="http://www.w3.org/2000/svg" viewBox="0 0 1792 592" width="100%" height="100%">
  <!-- Icon Background -->
  <rect x="108" y="94" width="401" height="408" rx="90" ry="90" fill="#141B2D" />
  
  <!-- Tablet Body -->
  <rect x="194" y="153" width="230" height="296" rx="20" ry="20" fill="#FFFFFF" />
  
  <!-- Tablet Home Button -->
  <circle cx="313.5" cy="424.5" r="15" fill="#141B2D" />
  
  <!-- Tablet Lines -->
  <rect x="236" y="216" width="143" height="18" rx="9" ry="9" fill="#BCCEDC" />
  <rect x="236" y="263" width="143" height="18" rx="9" ry="9" fill="#BCCEDC" />
  <rect x="236" y="310" width="104" height="18" rx="9" ry="9" fill="#BCCEDC" />
  
  <!-- Checkmark -->
  <path d="M 343.5 378 L 377 415.5 L 455 335.5" fill="none" stroke="#36B977" stroke-width="45" stroke-linecap="round" stroke-linejoin="round" />
  
  <!-- Text -->
  <g transform="translate(0.000000,592.000000) scale(0.100000,-0.100000)" fill="#141B2D" stroke="none">
    <path d="M16694 3600 c-11 -4 -33 -22 -47 -40 -56 -66 -23 -165 63 -191 77 -23 148 14 171 90 29 97 -84 183 -187 141z"/>
    <path d="M6465 3564 c-249 -31 -395 -160 -395 -350 0 -119 40 -199 128 -255 61 -39 131 -64 285 -104 150 -39 194 -60 225 -105 28 -42 28 -78 -1 -121 -35 -53 -97 -79 -187 -79 -124 0 -204 49 -232 141 l-11 39 -119 0 -118 0 0 -45 c0 -106 79 -225 188 -283 80 -43 173 -63 296 -63 180 0 298 41 381 133 56 62 79 130 79 228 -1 100 -29 164 -100 229 -63 58 -133 88 -307 130 -207 51 -245 75 -254 155 -5 43 -3 48 33 85 97 97 298 72 354 -44 l22 -45 119 0 119 0 -6 43 c-9 66 -60 162 -107 202 -48 42 -126 80 -188 94 -56 12 -165 20 -204 15z"/>
    <path d="M10180 2949 l0 -601 323 5 c382 5 411 10 515 94 59 48 94 120 100 208 5 84 -7 136 -48 197 -35 53 -91 93 -155 110 -25 7 -45 15 -45 18 0 3 25 16 56 29 99 43 144 119 144 242 0 81 -31 149 -89 202 -91 82 -172 97 -535 97 l-266 0 0 -601z m557 378 c118 -62 102 -223 -26 -266 -19 -6 -90 -11 -157 -11 l-124 0 0 143 c0 79 3 147 8 151 4 5 66 6 137 4 94 -3 139 -9 162 -21z m-32 -457 c102 -17 150 -68 150 -160 0 -67 -20 -102 -75 -131 -30 -16 -58 -19 -192 -19 l-158 0 0 153 c0 85 3 157 7 160 10 10 200 8 268 -3z"/>
    <path d="M13320 2950 l0 -601 123 3 122 3 5 147 c5 146 5 147 35 178 16 16 32 29 36 28 4 -2 54 -75 112 -163 58 -88 111 -168 119 -178 12 -16 28 -18 155 -15 l142 3 -170 253 c-153 227 -170 255 -157 270 73 86 276 322 291 340 l20 22 -144 0 -145 0 -145 -172 -144 -172 -5 325 -5 324 -122 3 -123 3 0 -601z"/>
    <path d="M7555 3238 c-50 -18 -112 -66 -137 -105 l-23 -38 -3 73 -3 72 -119 0 -120 0 0 -445 0 -445 124 0 125 0 3 293 c3 285 4 293 26 329 33 53 78 78 143 78 61 0 107 -23 136 -67 16 -24 19 -60 23 -328 l5 -300 123 -3 123 -3 -3 333 c-3 318 -4 335 -26 389 -29 72 -90 133 -159 159 -60 22 -186 26 -238 8z"/>
    <path d="M8400 3231 c-82 -26 -113 -45 -162 -100 -37 -41 -78 -125 -66 -136 2 -2 52 -7 111 -12 l109 -9 26 40 c64 94 245 78 267 -24 16 -73 -15 -92 -192 -115 -149 -19 -208 -36 -262 -75 -120 -87 -122 -301 -5 -399 113 -93 346 -83 438 19 20 22 38 40 41 40 3 0 5 -25 5 -55 l0 -55 116 0 115 0 -3 333 c-3 273 -6 339 -19 374 -32 84 -99 140 -208 173 -83 26 -233 26 -311 1z m290 -531 c0 -74 -17 -117 -59 -153 -83 -69 -209 -56 -250 28 -31 63 22 124 127 145 31 6 82 17 112 24 30 8 58 14 63 15 4 0 7 -26 7 -59z"/>
    <path d="M9540 3241 c-53 -17 -89 -42 -129 -88 l-41 -48 0 68 0 67 -120 0 -120 0 0 -605 0 -605 126 0 127 0 -5 225 -5 225 51 -53 c61 -64 119 -87 217 -87 121 0 208 43 278 137 134 181 117 527 -35 678 -62 63 -127 88 -229 92 -49 1 -101 -1 -115 -6z m127 -218 c21 -16 49 -52 63 -79 22 -43 25 -62 25 -149 -1 -84 -4 -108 -24 -147 -78 -161 -259 -152 -332 16 -45 103 -22 283 44 344 66 62 159 68 224 15z"/>
    <path d="M11536 3230 c-137 -44 -233 -148 -272 -295 -16 -59 -18 -211 -3 -274 47 -204 213 -326 439 -323 266 4 430 178 430 457 0 219 -106 379 -288 435 -85 26 -224 26 -306 0z m251 -199 c23 -16 50 -49 64 -77 21 -43 24 -63 24 -159 0 -95 -3 -116 -24 -158 -12 -26 -39 -60 -59 -75 -30 -23 -45 -27 -102 -27 -57 0 -72 4 -102 27 -54 41 -81 106 -86 205 -10 185 60 293 189 293 46 0 63 -5 96 -29z"/>
    <path d="M12549 3227 c-129 -45 -210 -126 -256 -259 -21 -60 -26 -91 -26 -173 1 -210 91 -359 260 -426 79 -32 280 -35 358 -5 109 41 193 125 237 233 20 51 23 76 23 193 0 151 -11 193 -73 288 -74 113 -178 163 -347 169 -95 3 -119 0 -176 -20z m242 -183 c70 -35 113 -133 112 -254 -2 -162 -75 -260 -194 -260 -80 0 -131 38 -170 125 -32 72 -32 208 1 283 25 58 76 108 118 118 15 3 32 7 37 9 16 4 68 -7 96 -21z"/>
    <path d="M14465 3229 c-76 -24 -131 -63 -169 -117 -25 -35 -31 -55 -34 -113 -5 -87 15 -145 65 -190 50 -43 104 -64 241 -93 132 -28 169 -40 194 -63 21 -19 23 -71 4 -95 -31 -42 -128 -60 -197 -37 -39 13 -86 54 -95 81 -5 17 -16 18 -122 16 l-117 -3 3 -25 c6 -52 57 -134 106 -171 79 -60 138 -74 301 -74 123 1 147 4 195 24 124 51 185 136 185 256 -1 76 -14 111 -61 159 -46 46 -99 67 -246 97 -188 39 -222 58 -216 120 5 57 84 91 173 75 38 -8 105 -59 105 -82 0 -16 34 -18 153 -8 49 5 77 11 77 19 0 6 -14 40 -31 74 -38 75 -96 122 -188 151 -86 27 -241 27 -326 -1z"/>
    <path d="M15900 3232 c-81 -27 -111 -46 -156 -94 -37 -40 -83 -132 -72 -143 2 -2 54 -7 115 -11 l111 -7 16 31 c19 36 56 59 114 68 85 13 166 -44 160 -114 -4 -52 -38 -68 -188 -87 -218 -28 -285 -59 -334 -156 -50 -100 -32 -222 44 -300 55 -57 119 -79 230 -79 100 0 161 21 218 76 25 24 47 44 49 44 2 0 3 -25 3 -55 l0 -55 116 0 115 0 -3 333 c-5 386 -7 397 -89 471 -75 67 -140 89 -279 93 -91 2 -126 -1 -170 -15z m290 -534 c0 -76 -20 -119 -73 -162 -35 -28 -46 -31 -105 -31 -79 0 -115 20 -132 70 -15 45 7 98 49 120 17 8 77 25 133 36 57 11 105 22 107 25 15 14 21 -4 21 -58z"/>
    <path d="M16630 2795 l0 -446 123 3 122 3 3 443 2 442 -125 0 -125 0 0 -445z"/>
    <path d="M15296 2610 c-39 -12 -83 -56 -97 -98 -15 -45 4 -115 39 -142 109 -86 267 8 232 138 -11 44 -68 102 -100 102 -10 0 -24 2 -32 4 -7 2 -26 0 -42 -4z"/>
  </g>
</svg>